<?xml version="1.0" encoding="utf-8"?><svg xmlns="http://www.w3.org/2000/svg" xmlns:xlink="http://www.w3.org/1999/xlink" width="1366" height="625" preserveAspectRatio="xMidYMid" viewBox="0 0 1366 625" style="z-index:1;margin-right:-2px;display:block;background-repeat-y:initial;background-repeat-x:initial;background-color:rgb(255, 255, 255);animation-play-state:paused" ><g transform="" style="animation-play-state:paused" ><defs style="animation-play-state:paused" ><linearGradient id="ldbk-photon-nre3h08iuvm-lg" x1="658" x2="1366" y1="0" y2="0" gradientUnits="userSpaceOnUse" style="animation-play-state:paused" ><stop stop-color="#1d3f72" offset="0" style="animation-play-state:paused" ></stop>

    
<stop stop-color="#34ffef" offset="1" style="animation-play-state:paused" ></stop></linearGradient>

  
<mask id="ldbk-photon-nre3h08iuvm-mask" style="animation-play-state:paused" ><g style="animation-play-state:paused" ><path d="M1666 -0.5 L670.1284164127533 -0.5 A15 15 0 0 1 670.1284164127533 30.5 L1666 30.5" fill="#fff" transform="matrix(1,0,0,1,37.19624710083008,0)" style="transform:matrix(1, 0, 0, 1, 37.1962, 0);animation-play-state:paused" ></path>
<path d="M1430.9778413303477 -0.5 L1465.9556826606954 -0.5 A15 15 0 0 1 1465.9556826606954 30.5 L1430.9778413303477 30.5 A15 15 0 0 1 1430.9778413303477 -0.5" fill="#000" transform="matrix(1,0,0,1,0,0)" opacity="1" style="transform:matrix(1, 0, 0, 1, 0, 0);animation-play-state:paused" ></path>
<path d="M1666 29.5 L642.9793079222321 29.5 A15 15 0 0 0 642.9793079222321 60.5 L1666 60.5" fill="#fff" transform="matrix(1,0,0,1,-24.659622192382812,0)" style="transform:matrix(1, 0, 0, 1, -24.6596, 0);animation-play-state:paused" ></path>
<path d="M700.872428544741 29.5 L725.221419438584 29.5 A15 15 0 0 1 725.221419438584 60.5 L700.872428544741 60.5 A15 15 0 0 1 700.872428544741 29.5" fill="#fff" transform="matrix(1,0,0,1,0,0)" opacity="1" style="transform:matrix(1, 0, 0, 1, 0, 0);animation-play-state:paused" ></path>
<path d="M1666 59.5 L653.5829359277378 59.5 A15 15 0 0 1 653.5829359277378 90.5 L1666 90.5" fill="#fff" transform="matrix(1,0,0,1,14.78900146484375,0)" style="transform:matrix(1, 0, 0, 1, 14.789, 0);animation-play-state:paused" ></path>
<path d="M1409.421343302313 59.5 L1422.8426866046261 59.5 A15 15 0 0 1 1422.8426866046261 90.5 L1409.421343302313 90.5 A15 15 0 0 1 1409.421343302313 59.5" fill="#000" transform="matrix(1,0,0,1,-1040.26416015625,0)" opacity="0.204082" style="transform:matrix(1, 0, 0, 1, -1040.26, 0);opacity:0.204082;animation-play-state:paused" ></path>
<path d="M1666 89.5 L610.7841816032214 89.5 A15 15 0 0 0 610.7841816032214 120.5 L1666 120.5" fill="#fff" transform="matrix(1,0,0,1,-1.0580558776855469,0)" style="transform:matrix(1, 0, 0, 1, -1.05806, 0);animation-play-state:paused" ></path>
<path d="M691.0546077186136 89.5 L707.3635751941363 89.5 A15 15 0 0 1 707.3635751941363 120.5 L691.0546077186136 120.5 A15 15 0 0 1 691.0546077186136 89.5" fill="#fff" transform="matrix(1,0,0,1,0,0)" opacity="0.816327" style="transform:matrix(1, 0, 0, 1, 0, 0);opacity:0.816327;animation-play-state:paused" ></path>
<path d="M1666 119.5 L645.4970718670994 119.5 A15 15 0 0 1 645.4970718670994 150.5 L1666 150.5" fill="#fff" transform="matrix(1,0,0,1,10.683284759521484,0)" style="transform:matrix(1, 0, 0, 1, 10.6833, 0);animation-play-state:paused" ></path>
<path d="M1430.0072404886782 119.5 L1464.0144809773565 119.5 A15 15 0 0 1 1464.0144809773565 150.5 L1430.0072404886782 150.5 A15 15 0 0 1 1430.0072404886782 119.5" fill="#000" transform="matrix(1,0,0,1,-210.22120666503906,0)" opacity="1" style="transform:matrix(1, 0, 0, 1, -210.221, 0);animation-play-state:paused" ></path>
<path d="M1666 149.5 L611.1891503841005 149.5 A15 15 0 0 0 611.1891503841005 180.5 L1666 180.5" fill="#fff" transform="matrix(1,0,0,1,-1.4231834411621094,0)" style="transform:matrix(1, 0, 0, 1, -1.42318, 0);animation-play-state:paused" ></path>
<path d="M680.6218735763082 149.5 L718.6073103464698 149.5 A15 15 0 0 1 718.6073103464698 180.5 L680.6218735763082 180.5 A15 15 0 0 1 680.6218735763082 149.5" fill="#fff" transform="matrix(1,0,0,1,0,0)" opacity="0.816327" style="transform:matrix(1, 0, 0, 1, 0, 0);opacity:0.816327;animation-play-state:paused" ></path>
<path d="M1666 179.5 L637.8039787688147 179.5 A15 15 0 0 1 637.8039787688147 210.5 L1666 210.5" fill="#fff" transform="matrix(1,0,0,1,1.1825110912322998,0)" style="transform:matrix(1, 0, 0, 1, 1.18251, 0);animation-play-state:paused" ></path>
<path d="M1414.4714538653823 179.5 L1432.9429077307645 179.5 A15 15 0 0 1 1432.9429077307645 210.5 L1414.4714538653823 210.5 A15 15 0 0 1 1414.4714538653823 179.5" fill="#000" transform="matrix(1,0,0,1,-1101.9415283203125,0)" opacity="0.204082" style="transform:matrix(1, 0, 0, 1, -1101.94, 0);opacity:0.204082;animation-play-state:paused" ></path>
<path d="M1666 209.5 L592.4237138571382 209.5 A15 15 0 0 0 592.4237138571382 240.5 L1666 240.5" fill="#fff" transform="matrix(1,0,0,1,-43.62248611450195,0)" style="transform:matrix(1, 0, 0, 1, -43.6225, 0);animation-play-state:paused" ></path>
<path d="M709.0992330588238 209.5 L741.3579812418462 209.5 A15 15 0 0 1 741.3579812418462 240.5 L709.0992330588238 240.5 A15 15 0 0 1 709.0992330588238 209.5" fill="#fff" transform="matrix(1,0,0,1,0,0)" opacity="1" style="transform:matrix(1, 0, 0, 1, 0, 0);animation-play-state:paused" ></path>
<path d="M1666 239.5 L669.9120543040001 239.5 A15 15 0 0 1 669.9120543040001 270.5 L1666 270.5" fill="#fff" transform="matrix(1,0,0,1,1.1341590881347656,0)" style="transform:matrix(1, 0, 0, 1, 1.13416, 0);animation-play-state:paused" ></path>
<path d="M1434.2237326832621 239.5 L1472.4474653665243 239.5 A15 15 0 0 1 1472.4474653665243 270.5 L1434.2237326832621 270.5 A15 15 0 0 1 1434.2237326832621 239.5" fill="#000" transform="matrix(1,0,0,1,-331.3605041503906,0)" opacity="1" style="transform:matrix(1, 0, 0, 1, -331.361, 0);animation-play-state:paused" ></path>
<path d="M1666 269.5 L606.2891527965528 269.5 A15 15 0 0 0 606.2891527965528 300.5 L1666 300.5" fill="#fff" transform="matrix(1,0,0,1,-25.838388442993164,0)" style="transform:matrix(1, 0, 0, 1, -25.8384, 0);animation-play-state:paused" ></path>
<path d="M746.6108405105497 269.5 L779.1237710320804 269.5 A15 15 0 0 1 779.1237710320804 300.5 L746.6108405105497 300.5 A15 15 0 0 1 746.6108405105497 269.5" fill="#fff" transform="matrix(1,0,0,1,0,0)" opacity="0.204081" style="transform:matrix(1, 0, 0, 1, 0, 0);opacity:0.204081;animation-play-state:paused" ></path>
<path d="M1666 299.5 L661.0319210144942 299.5 A15 15 0 0 1 661.0319210144942 330.5 L1666 330.5" fill="#fff" transform="matrix(1,0,0,1,1.518798828125,0)" style="transform:matrix(1, 0, 0, 1, 1.5188, 0);animation-play-state:paused" ></path>
<path d="M1434.5185756245378 299.5 L1473.0371512490756 299.5 A15 15 0 0 1 1473.0371512490756 330.5 L1434.5185756245378 330.5 A15 15 0 0 1 1434.5185756245378 299.5" fill="#000" transform="matrix(1,0,0,1,-535.9600830078125,0)" opacity="0.816327" style="transform:matrix(1, 0, 0, 1, -535.96, 0);opacity:0.816327;animation-play-state:paused" ></path>
<path d="M1666 329.5 L640.9702572631622 329.5 A15 15 0 0 0 640.9702572631622 360.5 L1666 360.5" fill="#fff" transform="matrix(1,0,0,1,-13.134073257446289,0)" style="transform:matrix(1, 0, 0, 1, -13.1341, 0);animation-play-state:paused" ></path>
<path d="M742.2724425368847 329.5 L773.5948312152477 329.5 A15 15 0 0 1 773.5948312152477 360.5 L742.2724425368847 360.5 A15 15 0 0 1 742.2724425368847 329.5" fill="#fff" transform="matrix(1,0,0,1,0,0)" opacity="1" style="transform:matrix(1, 0, 0, 1, 0, 0);animation-play-state:paused" ></path>
<path d="M1666 359.5 L693.2038930730793 359.5 A15 15 0 0 1 693.2038930730793 390.5 L1666 390.5" fill="#fff" transform="matrix(1,0,0,1,10.419002532958984,0)" style="transform:matrix(1, 0, 0, 1, 10.419, 0);animation-play-state:paused" ></path>
<path d="M1427.2815155193018 359.5 L1458.5630310386036 359.5 A15 15 0 0 1 1458.5630310386036 390.5 L1427.2815155193018 390.5 A15 15 0 0 1 1427.2815155193018 359.5" fill="#000" transform="matrix(1,0,0,1,-1204.6279296875,0)" opacity="0.408163" style="transform:matrix(1, 0, 0, 1, -1204.63, 0);opacity:0.408163;animation-play-state:paused" ></path>
<path d="M1666 389.5 L629.5676824403448 389.5 A15 15 0 0 0 629.5676824403448 420.5 L1666 420.5" fill="#fff" transform="matrix(1,0,0,1,-0.8892309665679932,0)" style="transform:matrix(1, 0, 0, 1, -0.889231, 0);animation-play-state:paused" ></path>
<path d="M775.7178320647221 389.5 L795.0474153768351 389.5 A15 15 0 0 1 795.0474153768351 420.5 L775.7178320647221 420.5 A15 15 0 0 1 775.7178320647221 389.5" fill="#fff" transform="matrix(1,0,0,1,0,0)" opacity="0.612244" style="transform:matrix(1, 0, 0, 1, 0, 0);opacity:0.612244;animation-play-state:paused" ></path>
<path d="M1666 419.5 L693.4852217615154 419.5 A15 15 0 0 1 693.4852217615154 450.5 L1666 450.5" fill="#fff" transform="matrix(1,0,0,1,30.124013900756836,0)" style="transform:matrix(1, 0, 0, 1, 30.124, 0);animation-play-state:paused" ></path>
<path d="M1424.7638282197577 419.5 L1453.5276564395153 419.5 A15 15 0 0 1 1453.5276564395153 450.5 L1424.7638282197577 450.5 A15 15 0 0 1 1424.7638282197577 419.5" fill="#000" transform="matrix(1,0,0,1,0,0)" opacity="1" style="transform:matrix(1, 0, 0, 1, 0, 0);animation-play-state:paused" ></path>
<path d="M1666 449.5 L664.4109589694982 449.5 A15 15 0 0 0 664.4109589694982 480.5 L1666 480.5" fill="#fff" transform="matrix(1,0,0,1,-0.9367866516113281,0)" style="transform:matrix(1, 0, 0, 1, -0.936787, 0);animation-play-state:paused" ></path>
<path d="M747.3997432128032 449.5 L768.7760604786863 449.5 A15 15 0 0 1 768.7760604786863 480.5 L747.3997432128032 480.5 A15 15 0 0 1 747.3997432128032 449.5" fill="#fff" transform="matrix(1,0,0,1,0,0)" opacity="1" style="transform:matrix(1, 0, 0, 1, 0, 0);animation-play-state:paused" ></path>
<path d="M1666 479.5 L707.1440296413658 479.5 A15 15 0 0 1 707.1440296413658 510.5 L1666 510.5" fill="#fff" transform="matrix(1,0,0,1,9.383386611938477,0)" style="transform:matrix(1, 0, 0, 1, 9.38339, 0);animation-play-state:paused" ></path>
<path d="M1406.1519672743364 479.5 L1416.3039345486727 479.5 A15 15 0 0 1 1416.3039345486727 510.5 L1406.1519672743364 510.5 A15 15 0 0 1 1406.1519672743364 479.5" fill="#000" transform="matrix(1,0,0,1,-721.0779418945312,0)" opacity="0.612245" style="transform:matrix(1, 0, 0, 1, -721.078, 0);opacity:0.612245;animation-play-state:paused" ></path>
<path d="M1666 509.5 L660.9832546258218 509.5 A15 15 0 0 0 660.9832546258218 540.5 L1666 540.5" fill="#fff" transform="matrix(1,0,0,1,-28.13373565673828,0)" style="transform:matrix(1, 0, 0, 1, -28.1337, 0);animation-play-state:paused" ></path>
<path d="M786.1665467209713 509.5 L797.3966628702597 509.5 A15 15 0 0 1 797.3966628702597 540.5 L786.1665467209713 540.5 A15 15 0 0 1 786.1665467209713 509.5" fill="#fff" transform="matrix(1,0,0,1,0,0)" opacity="1" style="transform:matrix(1, 0, 0, 1, 0, 0);animation-play-state:paused" ></path>
<path d="M1666 539.5 L694.6453033732673 539.5 A15 15 0 0 1 694.6453033732673 570.5 L1666 570.5" fill="#fff" transform="matrix(1,0,0,1,25.74622344970703,0)" style="transform:matrix(1, 0, 0, 1, 25.7462, 0);animation-play-state:paused" ></path>
<path d="M1417.2408870214983 539.5 L1438.4817740429967 539.5 A15 15 0 0 1 1438.4817740429967 570.5 L1417.2408870214983 570.5 A15 15 0 0 1 1417.2408870214983 539.5" fill="#000" transform="matrix(1,0,0,1,-900.0343627929688,0)" opacity="0.612245" style="transform:matrix(1, 0, 0, 1, -900.034, 0);opacity:0.612245;animation-play-state:paused" ></path>
<path d="M1666 569.5 L656.1544118666843 569.5 A15 15 0 0 0 656.1544118666843 600.5 L1666 600.5" fill="#fff" transform="matrix(1,0,0,1,-38.803157806396484,0)" style="transform:matrix(1, 0, 0, 1, -38.8032, 0);animation-play-state:paused" ></path>
<path d="M752.45837616461 569.5 L791.2774355522332 569.5 A15 15 0 0 1 791.2774355522332 600.5 L752.45837616461 600.5 A15 15 0 0 1 752.45837616461 569.5" fill="#fff" transform="matrix(1,0,0,1,0,0)" opacity="0.816327" style="transform:matrix(1, 0, 0, 1, 0, 0);opacity:0.816327;animation-play-state:paused" ></path>
<path d="M1666 599.5 L690.9977125959219 599.5 A15 15 0 0 1 690.9977125959219 630.5 L1666 630.5" fill="#fff" transform="matrix(1,0,0,1,15.19688892364502,0)" style="transform:matrix(1, 0, 0, 1, 15.1969, 0);animation-play-state:paused" ></path>
<path d="M1413.4536972848973 599.5 L1430.9073945697946 599.5 A15 15 0 0 1 1430.9073945697946 630.5 L1413.4536972848973 630.5 A15 15 0 0 1 1413.4536972848973 599.5" fill="#000" transform="matrix(1,0,0,1,-925.9444580078125,0)" opacity="0.408163" style="transform:matrix(1, 0, 0, 1, -925.944, 0);opacity:0.408163;animation-play-state:paused" ></path></g></mask></defs>


<rect x="0" y="0" width="1366" height="625" fill="url(#ldbk-photon-nre3h08iuvm-lg)" mask="url(#ldbk-photon-nre3h08iuvm-mask)" style="animation-play-state:paused" ></rect></g></svg>