<?xml version="1.0" encoding="utf-8"?><svg xmlns="http://www.w3.org/2000/svg" xmlns:xlink="http://www.w3.org/1999/xlink" width="1366" height="576" preserveAspectRatio="xMidYMid" viewBox="0 0 1366 576" style="z-index:1;margin-right:-2px;display:block;background-repeat-y:initial;background-repeat-x:initial;background-color:rgb(255, 255, 255);animation-play-state:paused" ><g transform="" style="animation-play-state:paused" ><linearGradient id="lg-0.5240596451801272" x1="0" x2="1" y1="0" y2="0" style="animation-play-state:paused" ><stop stop-color="#ff00ff" offset="0" style="animation-play-state:paused" ></stop>

  
<stop stop-color="#00ffff" offset="1" style="animation-play-state:paused" ></stop></linearGradient>
<path d="M 1219.8 288 C 1219.8 449 980 682.2 827.2 731.8 C 674.4 781.4 312.2 756.2 217.4 626.2 C 122.6 496.2 137 90 231.8 -40 C 326.6 -170 668.6 -187 821.4 -137.4 C 974.2 -87.8 1219.8 127 1219.8 288" fill="url(#lg-0.5240596451801272)" opacity="0.4" style="opacity:0.4;animation-play-state:paused" ></path>
<path d="M 1224 288 C 1224 453.8 976.6 654.8 819 705.8 C 661.4 756.8 339.4 742.6 241.8 608.4 C 144.2 474.2 160.6 114 258.2 -20.2 C 355.8 -154.4 644.8 -130.4 802.4 -79.4 C 960 -28.4 1224 122.2 1224 288" fill="url(#lg-0.5240596451801272)" opacity="0.4" style="opacity:0.4;animation-play-state:paused" ></path>
<path d="M 1308 288 C 1308 458 982.2 657.2 820.4 710 C 658.6 762.8 282 789.4 182.2 652 C 82.4 514.6 104.2 77 204 -60.4 C 303.8 -197.8 643 -139.6 804.8 -86.8 C 966.6 -34 1308 118 1308 288" fill="url(#lg-0.5240596451801272)" opacity="0.4" style="opacity:0.4;animation-play-state:paused" ></path>
<path d="M 1300.8 288 C 1300.8 451.8 985.4 687.8 829 738.2 C 672.6 788.6 374.8 714.6 278 581.8 C 181.2 449 124.8 85.2 221.4 -47.6 C 318 -180.4 649.6 -141.2 806 -90.8 C 962.4 -40.4 1300.8 124.2 1300.8 288" fill="url(#lg-0.5240596451801272)" opacity="0.4" style="opacity:0.4;animation-play-state:paused" ></path>
<path d="M 1333.4 288 C 1333.4 458 972.8 630.8 811 682.8 C 649.2 734.8 292.4 782.2 192.4 644.4 C 92.4 506.6 149.8 111.4 249.8 -26.4 C 349.8 -164.2 650.2 -160.6 812 -107.8 C 973.8 -55 1333.4 118 1333.4 288" fill="url(#lg-0.5240596451801272)" opacity="0.4" style="opacity:0.4;animation-play-state:paused" ></path></g></svg>